<?xml version="1.0" standalone="no"?>
<!DOCTYPE svg PUBLIC "-//W3C//DTD SVG 20010904//EN"
 "http://www.w3.org/TR/2001/REC-SVG-20010904/DTD/svg10.dtd">
<svg version="1.0" xmlns="http://www.w3.org/2000/svg"
 width="512.000000pt" height="512.000000pt" viewBox="0 0 512.000000 512.000000"
 preserveAspectRatio="xMidYMid meet">
<metadata>
Created by potrace 1.14, written by Peter Selinger 2001-2017
</metadata>
<g transform="translate(0.000000,512.000000) scale(0.100000,-0.100000)"
fill="#000000" stroke="none">
<path d="M1212 5077 c-16 -19 -11 -158 5 -164 23 -9 27 4 29 87 1 57 -2 80
-11 84 -8 3 -18 -1 -23 -7z"/>
<path d="M4436 4868 c-21 -30 -20 -35 8 -53 31 -21 66 -5 66 28 0 47 -48 63
-74 25z"/>
<path d="M4692 4878 c-21 -21 -14 -57 13 -70 22 -10 29 -9 46 9 17 17 18 23 8
46 -13 29 -46 36 -67 15z"/>
<path d="M530 4812 c0 -22 92 -112 114 -112 29 0 17 29 -35 80 -53 52 -79 63
-79 32z"/>
<path d="M1838 4779 c-48 -49 -58 -72 -38 -84 16 -10 123 102 116 120 -9 25
-29 16 -78 -36z"/>
<path d="M3511 4816 c-40 -13 -71 -51 -76 -92 -7 -64 76 -164 174 -211 47 -23
69 -27 141 -27 71 0 94 4 140 27 60 29 110 72 146 127 30 45 35 78 19 117 -36
85 -152 87 -201 4 -18 -31 -47 -47 -97 -57 -33 -5 -104 30 -112 56 -15 46 -81
74 -134 56z"/>
<path d="M1133 4659 c-214 -36 -405 -208 -458 -415 -37 -146 -18 -303 50 -420
l25 -42 -80 -40 c-319 -162 -575 -504 -650 -872 -19 -90 -21 -126 -17 -255 6
-156 20 -231 71 -371 14 -39 26 -74 26 -76 0 -3 -18 -18 -40 -33 -22 -15 -40
-30 -40 -34 0 -3 35 -22 76 -41 75 -34 77 -37 142 -135 79 -119 245 -290 347
-357 216 -140 423 -199 680 -194 338 8 665 144 945 394 38 34 73 62 78 62 4 0
19 -11 32 -25 13 -14 27 -25 31 -25 4 0 17 44 29 97 18 75 32 112 67 166 25
39 48 66 51 61 12 -17 186 -160 287 -236 113 -84 193 -138 278 -187 31 -18 57
-34 57 -35 0 -2 -89 -3 -197 -3 l-198 1 -1 -795 c0 -437 1 -799 3 -805 3 -9
294 -12 1136 -10 l1132 1 0 803 c0 706 -2 802 -15 803 -8 0 -98 1 -198 1
l-184 1 34 26 c61 46 214 209 269 286 47 66 62 80 119 107 36 17 67 33 70 35
2 2 -13 19 -33 36 l-38 32 17 40 c82 194 105 492 54 695 -127 512 -536 882
-1035 937 -294 32 -580 -40 -870 -219 -77 -48 -268 -181 -291 -203 -6 -5 -33
-28 -60 -50 -89 -73 -128 -109 -225 -205 l-97 -95 -30 50 c-139 227 -427 470
-720 608 -77 36 -82 40 -68 56 8 9 27 43 42 75 76 167 72 348 -13 516 -68 133
-237 254 -398 285 -84 16 -114 17 -192 4z m2921 -1363 c287 -67 497 -344 497
-655 0 -104 -22 -225 -47 -259 -1 -2 -21 6 -44 18 -23 12 -44 19 -47 16 -3 -3
2 -45 11 -93 9 -48 16 -92 16 -98 0 -5 -24 -35 -53 -66 -242 -261 -573 -297
-957 -104 -186 93 -349 213 -524 385 l-99 97 80 89 c204 227 381 384 574 511
232 151 413 200 593 159z m-3089 -66 c73 -106 208 -156 330 -125 80 21 146 65
188 126 l15 21 62 -31 c196 -100 378 -267 530 -488 l69 -99 -75 -111 -74 -111
-46 5 -47 5 23 -32 c20 -28 21 -34 9 -57 -23 -43 -203 -208 -290 -266 -161
-107 -288 -150 -439 -150 -165 1 -333 82 -466 226 l-66 72 6 80 c3 44 9 90 12
103 l7 23 -39 -16 c-63 -28 -66 -26 -87 45 -30 101 -30 319 1 425 33 114 77
191 152 265 53 53 165 129 191 130 4 0 19 -18 34 -40z"/>
<path d="M3482 2867 c-29 -13 -37 -40 -37 -127 0 -68 -2 -76 -22 -85 -30 -13
-29 -33 2 -45 25 -10 26 -12 23 -96 -3 -80 -1 -87 21 -105 31 -25 81 -26 81
-1 0 11 -8 18 -22 19 -32 3 -38 20 -35 106 2 67 -1 80 -16 89 -18 9 -18 10 0
23 15 11 18 26 16 91 -3 81 6 104 38 104 12 0 19 7 19 18 0 20 -33 24 -68 9z"/>
<path d="M3940 2860 c0 -11 6 -20 14 -20 8 0 22 -7 31 -16 14 -14 15 -29 10
-85 -6 -60 -4 -70 14 -88 12 -12 17 -21 12 -21 -18 0 -33 -59 -26 -109 8 -63
0 -89 -28 -93 -12 -2 -23 -11 -25 -20 -5 -25 48 -24 79 1 22 18 24 25 22 105
-3 84 -2 87 22 96 31 12 32 32 3 45 -21 9 -23 17 -23 85 0 111 -7 123 -80 136
-20 3 -25 0 -25 -16z"/>
<path d="M3577 2641 c-6 -25 14 -44 37 -35 24 9 16 48 -10 52 -15 2 -23 -3
-27 -17z"/>
<path d="M3727 2653 c-13 -12 -7 -41 10 -47 21 -8 48 17 40 38 -6 16 -38 22
-50 9z"/>
<path d="M3871 2646 c-9 -11 -8 -18 4 -30 21 -21 32 -20 43 2 19 36 -21 60
-47 28z"/>
<path d="M1270 2674 c-69 -177 -81 -217 -69 -225 8 -5 19 -7 24 -6 14 5 174
418 168 434 -3 7 -13 13 -22 13 -14 0 -37 -50 -101 -216z"/>
<path d="M1086 2783 c-4 -4 -60 -35 -124 -68 -160 -82 -160 -84 8 -170 72 -36
138 -64 146 -61 35 13 9 38 -96 88 -60 29 -110 55 -110 58 0 3 49 30 108 61
80 41 107 60 107 74 0 20 -25 32 -39 18z"/>
<path d="M1452 2777 c-17 -20 -3 -31 113 -89 l109 -55 -114 -59 c-109 -56
-139 -84 -99 -92 17 -3 230 99 260 125 32 27 9 49 -121 116 -70 37 -130 67
-133 67 -2 0 -9 -6 -15 -13z"/>
<path d="M2720 4586 c-78 -29 -90 -36 -133 -78 -54 -53 -80 -102 -79 -145 4
-110 151 -140 209 -43 19 33 67 60 108 60 36 0 87 -32 105 -66 54 -101 217
-46 205 68 -8 67 -107 165 -203 200 -56 20 -163 22 -212 4z"/>
<path d="M4437 4593 c-4 -3 -7 -19 -7 -34 0 -34 25 -50 58 -38 27 10 32 63 6
73 -21 8 -49 8 -57 -1z"/>
<path d="M4692 4588 c-28 -28 0 -81 38 -71 29 8 43 38 30 63 -12 22 -49 27
-68 8z"/>
<path d="M4441 4301 c-25 -25 -17 -59 15 -67 14 -4 31 -1 39 6 21 18 19 57 -4
70 -26 13 -28 13 -50 -9z"/>
<path d="M4696 4304 c-31 -31 -13 -74 31 -74 16 0 27 8 34 27 9 24 7 30 -11
45 -27 22 -34 22 -54 2z"/>
<path d="M273 4155 c-25 -18 1 -30 72 -32 75 -2 97 4 93 25 -3 14 -17 17 -76
18 -42 1 -79 -4 -89 -11z"/>
<path d="M2012 4152 c-8 -22 15 -30 92 -28 64 1 71 3 71 21 0 18 -7 20 -79 21
-58 0 -80 -4 -84 -14z"/>
<path d="M4444 4032 c-21 -14 -22 -50 -2 -69 11 -10 23 -16 27 -15 3 2 14 8
24 13 20 11 23 49 5 67 -13 13 -38 15 -54 4z"/>
<path d="M4692 4028 c-19 -19 -14 -56 9 -68 29 -16 70 11 64 42 -7 36 -48 51
-73 26z"/>
<path d="M2576 3898 c-8 -13 -20 -35 -27 -50 -8 -18 -27 -33 -56 -44 -53 -20
-53 -39 -1 -68 20 -12 51 -40 67 -63 17 -23 36 -40 43 -38 7 3 22 22 33 43 12
22 36 45 60 58 53 27 54 54 1 69 -32 9 -43 20 -62 57 -30 58 -39 64 -58 36z"/>
<path d="M215 1310 c-21 -41 -32 -51 -65 -61 -52 -16 -53 -40 -2 -66 20 -11
50 -38 65 -61 16 -23 35 -42 42 -42 8 0 22 16 31 36 11 24 33 45 66 62 58 32
58 52 1 71 -34 12 -45 23 -64 63 -12 26 -28 48 -36 48 -7 0 -24 -22 -38 -50z"/>
<path d="M2031 1274 c-37 -26 -21 -74 26 -74 29 0 48 33 34 59 -15 27 -35 32
-60 15z"/>
<path d="M2292 1283 c-38 -15 -34 -75 7 -86 24 -6 54 24 49 49 -4 20 -38 43
-56 37z"/>
<path d="M804 1055 c-93 -39 -83 -152 20 -243 141 -123 342 -115 474 19 78 79
89 150 32 204 -25 24 -38 28 -77 28 -44 -1 -51 -5 -93 -52 -53 -60 -83 -73
-136 -61 -34 8 -94 59 -94 80 0 10 -38 29 -67 34 -15 3 -42 -1 -59 -9z"/>
<path d="M2028 999 c-25 -14 -23 -56 2 -69 46 -25 88 23 54 61 -19 21 -31 23
-56 8z"/>
<path d="M2282 1001 c-32 -20 -11 -81 28 -81 40 0 56 61 21 80 -24 12 -32 12
-49 1z"/>
<path d="M2038 753 c-23 -6 -34 -49 -18 -68 20 -25 59 -19 70 11 6 14 8 30 5
35 -10 15 -39 26 -57 22z"/>
<path d="M2292 753 c-22 -8 -34 -41 -22 -63 20 -38 87 -16 78 26 -4 20 -38 43
-56 37z"/>
<path d="M542 452 c-62 -22 -114 -62 -160 -121 -52 -68 -54 -114 -9 -167 17
-19 35 -27 70 -31 47 -6 49 -5 95 44 56 60 79 73 128 73 33 0 44 -7 90 -56 45
-49 57 -57 97 -61 43 -5 49 -3 82 30 49 49 49 97 -1 164 -45 59 -65 76 -129
110 -68 35 -187 42 -263 15z"/>
<path d="M2028 459 c-22 -12 -23 -52 -3 -69 19 -15 61 -6 69 16 7 19 -19 64
-37 64 -6 0 -20 -5 -29 -11z"/>
<path d="M2275 446 c-8 -13 -13 -31 -9 -40 8 -22 50 -31 69 -16 21 18 19 57
-4 70 -29 15 -39 13 -56 -14z"/>
<path d="M2020 175 c-17 -20 -5 -61 20 -68 11 -3 30 3 42 13 20 15 21 21 10
44 -13 30 -52 36 -72 11z"/>
<path d="M2268 164 c-11 -23 -10 -29 11 -45 21 -17 26 -18 45 -6 41 27 27 77
-20 77 -17 0 -28 -9 -36 -26z"/>
</g>
</svg>
